Coordinates
version=1
nRows=9
nColumns=63
inDegrees=yes

Units are S.I. units (second, meters, Newtons, ...)
If the header above contains a line with 'inDegrees', this indicates whether rotational values are in degrees (yes) or radians (no).

endheader
time	pelvis_tilt	pelvis_list	pelvis_rotation	pelvis_tx	pelvis_ty	pelvis_tz	hip_flexion_r	hip_adduction_r	hip_rotation_r	knee_angle_r	knee_angle_r_beta	ankle_angle_r	subtalar_angle_r	mtp_angle_r	hip_flexion_l	hip_adduction_l	hip_rotation_l	knee_angle_l	knee_angle_l_beta	ankle_angle_l	subtalar_angle_l	mtp_angle_l	L5_S1_Flex_Ext	L5_S1_Lat_Bending	L5_S1_axial_rotation	L4_L5_Flex_Ext	L4_L5_Lat_Bending	L4_L5_axial_rotation	L3_L4_Flex_Ext	L3_L4_Lat_Bending	L3_L4_axial_rotation	L2_L3_Flex_Ext	L2_L3_Lat_Bending	L2_L3_axial_rotation	L1_L2_Flex_Ext	L1_L2_Lat_Bending	L1_L2_axial_rotation	L1_T12_Flex_Ext	L1_T12_Lat_Bending	L1_T12_axial_rotation	Abs_r3	Abs_r2	Abs_r1	Abs_t1	Abs_t2	neck_flexion	neck_bending	neck_rotation	arm_flex_r	arm_add_r	arm_rot_r	elbow_flex_r	pro_sup_r	wrist_flex_r	wrist_dev_r	arm_flex_l	arm_add_l	arm_rot_l	elbow_flex_l	pro_sup_l	wrist_flex_l	wrist_dev_l
      1.50000000	     -5.98742518	     22.04344424	    -82.00380845	      0.37954270	      0.73737156	     -0.66420321	     42.83030633	    -30.10932367	      4.64297598	     67.01583381	      1.16964695	     18.73450844	    -13.12161738	      0.00000000	     71.02439755	    -19.83014212	     15.19748369	     62.52509686	      1.09126881	     25.52739250	      7.57470993	      0.00000000	     -0.01140045	     -0.47244091	      2.91373587	     -0.02117178	     -0.62834641	      3.09584436	     -0.01872980	     -1.14869283	      3.09584436	     -0.01302958	     -1.14869283	      2.54951889	     -0.01058646	     -0.96340151	      2.36741039	     -0.00651422	     -0.73181097	      2.18530190	     -0.08143229	     -5.34434607	     16.20532479	      0.00000000	      0.00000000	      0.00000000	      0.00000000	      0.00000000	    -14.62725289	    -17.51557567	    -39.22539656	     28.64498726	     62.17242668	      0.00000000	      4.99360874	     -9.85727305	    -15.61847208	    -15.32997534	     67.78889828	     62.66996613	      0.00000000	      4.99360874
      1.53333333	     -6.10191486	     22.31030102	    -82.55253303	      0.37573143	      0.74789200	     -0.64646425	     47.04663822	    -29.06990738	      5.97362778	     65.73187998	      1.14723773	     18.39894703	     -9.91846466	      0.00000000	     68.82582486	    -20.98252462	     14.56316120	     61.62673768	      1.07558948	     26.04383503	      7.33558629	      0.00000000	     -0.01013354	     -0.45996527	      2.19860092	     -0.01881900	     -0.61175380	      2.33601347	     -0.01664840	     -1.11835955	      2.33601347	     -0.01158163	     -1.11835955	      1.92377580	     -0.00941001	     -0.93796117	      1.78636325	     -0.00579031	     -0.71248620	      1.64895069	     -0.07238288	     -5.20321908	     12.22795872	      0.00000000	      0.00000000	      0.00000000	      0.00000000	      0.00000000	    -19.15130501	    -22.32231017	    -60.93565983	     29.97181581	     58.23047093	      0.00000000	      4.99445414	     -7.76508069	    -17.79657353	    -20.04034673	     74.23454099	     61.46052560	      0.00000000	      4.99445414
      1.56666667	     -5.89689937	     22.13185058	    -83.29827065	      0.36920315	      0.75951335	     -0.62739079	     48.25616177	    -28.30036176	      6.59256080	     61.66405163	      1.07624073	     18.14272190	     -6.12704607	      0.00000000	     65.74885088	    -22.02987884	     13.81763835	     60.39384005	      1.05407136	     25.94750616	      6.39272634	      0.00000000	     -0.00719981	     -0.40667014	      1.55389095	     -0.01337077	     -0.54087129	      1.65100913	     -0.01182857	     -0.98877778	      1.65100913	     -0.00822867	     -0.98877778	      1.35965458	     -0.00668575	     -0.82928175	      1.26253640	     -0.00411397	     -0.62993205	      1.16541821	     -0.05142755	     -4.60033398	      8.64227529	      0.00000000	      0.00000000	      0.00000000	      0.00000000	      0.00000000	    -24.13800754	    -29.98293529	    -76.16787604	     31.69715112	     55.96775531	      0.00000000	      4.99505336	     -7.85979712	    -20.80034085	    -25.87285467	     80.85625792	     60.14791467	      0.00000000	      4.99505336
      1.60000000	     -5.42545669	     21.61781631	    -84.08216006	      0.36105244	      0.77126039	     -0.60695288	     46.72790684	    -27.97039807	      6.25994935	     56.09962483	      0.97912316	     18.38370066	     -2.29281112	      0.00000000	     62.16592755	    -22.82886682	     12.81093178	     59.07370488	      1.03103065	     25.35719681	      4.92878798	      0.00000000	     -0.00222939	     -0.32975716	      0.99810132	     -0.00414020	     -0.43857703	      1.06048266	     -0.00366267	     -0.80177156	      1.06048266	     -0.00254797	     -0.80177156	      0.87333866	     -0.00207021	     -0.67244080	      0.81095733	     -0.00127387	     -0.51079384	      0.74857599	     -0.01592431	     -3.73027897	      5.55114013	      0.00000000	      0.00000000	      0.00000000	      0.00000000	      0.00000000	    -30.33514235	    -38.84112414	    -86.13050828	     33.00325908	     54.67927350	      0.00000000	      4.99543239	    -10.09757008	    -24.14355624	    -32.75625912	     86.72420446	     58.94716065	      0.00000000	      4.99543239
      1.63333333	     -4.71043824	     20.93501723	    -85.09275195	      0.35130556	      0.78264712	     -0.58571265	     43.50999714	    -27.62041651	      5.52232242	     50.45432311	      0.88059406	     19.01011919	      0.45743214	      0.00000000	     58.48288807	    -23.60124460	     11.13048017	     57.96883639	      1.01174706	     24.28543245	      2.97751019	      0.00000000	      0.00043671	     -0.25955223	      0.59118383	      0.00081102	     -0.34520447	      0.62813282	      0.00071747	     -0.63107530	      0.62813282	      0.00049912	     -0.63107530	      0.51728585	      0.00040553	     -0.52927891	      0.48033687	      0.00024954	     -0.40204641	      0.44338788	      0.00311938	     -2.93610676	      3.28798713	      0.00000000	      0.00000000	      0.00000000	      0.00000000	      0.00000000	    -37.63180992	    -46.52877715	    -94.90289017	     35.10080650	     53.67284919	      0.00000000	      4.99572680	    -13.92335739	    -27.77381815	    -40.15591659	     91.02780385	     57.82566562	      0.00000000	      4.99572680
      1.66666667	     -3.79112937	     20.29405789	    -86.33745266	      0.34074961	      0.79327591	     -0.56483025	     39.75723288	    -27.09568050	      4.77521082	     45.62868159	      0.79637073	     19.75419218	      1.27903023	      0.00000000	     55.04571136	    -24.33987646	      8.69359346	     57.10884639	      0.99673740	     22.96055990	      0.99898255	      0.00000000	      0.00361597	     -0.21787969	      0.34447881	      0.00671522	     -0.28977999	      0.36600873	      0.00594068	     -0.52975268	      0.36600873	      0.00413270	     -0.52975268	      0.30141896	      0.00335779	     -0.44430027	      0.27988903	      0.00206617	     -0.33749564	      0.25835911	      0.02582853	     -2.46469865	      1.91588779	      0.00000000	      0.00000000	      0.00000000	      0.00000000	      0.00000000	    -46.18035026	    -51.84304680	   -102.39599663	     38.69385131	     52.91867367	      0.00000000	      4.99590169	    -18.55181705	    -31.62547504	    -47.31776919	     93.32256043	     57.00123036	      0.00000000	      4.99590169
      1.70000000	     -3.06019428	     19.74535920	    -87.17629082	      0.33137701	      0.80274146	     -0.54538962	     36.04635988	    -26.61508298	      3.31891608	     42.23438715	      0.73712911	     20.34258235	      0.62237350	      0.00000000	     52.34712203	    -24.69345542	      6.48189497	     56.50232202	      0.98615155	     21.59322313	     -1.01754520	      0.00000000	      0.00298641	     -0.17227157	      0.16453142	      0.00554607	     -0.22912119	      0.17481463	      0.00490638	     -0.41886110	      0.17481463	      0.00341317	     -0.41886110	      0.14396499	      0.00277318	     -0.35129619	      0.13368178	      0.00170644	     -0.26684866	      0.12339856	      0.02133164	     -1.94877045	      0.91507439	      0.00000000	      0.00000000	      0.00000000	      0.00000000	      0.00000000	    -53.66281960	    -54.74670987	   -110.40024454	     43.05339938	     52.36253118	      0.00000000	      4.99611895	    -22.98809346	    -35.60027182	    -53.36029527	     93.73422227	     56.10889924	      0.00000000	      4.99611895
      1.73333333	     -2.54294913	     19.33858092	    -87.95240793	      0.32268538	      0.81052747	     -0.52770980	     33.42362452	    -25.94263547	      2.18990763	     40.85334980	      0.71302546	     20.34995726	     -1.50734288	      0.00000000	     50.11886838	    -25.14154790	      4.30098328	     55.82438512	      0.97431932	     20.72120917	     -2.53681103	      0.00000000	      0.00381564	     -0.13565726	      0.06310503	      0.00708602	     -0.18042415	      0.06704910	      0.00626871	     -0.32983706	      0.06704910	      0.00436089	     -0.32983706	      0.05521690	      0.00354320	     -0.27663228	      0.05127284	      0.00218026	     -0.21013309	      0.04732877	      0.02725473	     -1.53458205	      0.35097125	      0.00000000	      0.00000000	      0.00000000	      0.00000000	      0.00000000	    -58.77459141	    -55.77658596	   -115.88047966	     47.39373320	     52.07309818	      0.00000000	      4.99621624	    -26.74499433	    -39.79410267	    -58.46176769	     93.02479826	     55.55116451	      0.00000000	      4.99621624
      1.76666667	     -2.55939990	     19.02138797	    -88.38929366	      0.31506475	      0.81601194	     -0.51180237	     32.04963163	    -25.00593985	      1.80453548	     41.50289413	      0.72436215	     19.52934728	     -5.11491696	      0.00000000	     48.28058989	    -25.76150042	      2.86332501	     54.83656084	      0.95707854	     20.57528845	     -3.69707583	      0.00000000	      0.00360526	     -0.08038596	      0.03193259	      0.00669532	     -0.10691333	      0.03392838	      0.00592308	     -0.19545043	      0.03392838	      0.00412045	     -0.19545043	      0.02794101	      0.00334784	     -0.16392306	      0.02594523	      0.00206004	     -0.12451786	      0.02394944	      0.02575199	     -0.90934209	      0.17759948	      0.00000000	      0.00000000	     -0.00000000	      0.00000000	      0.00000000	    -60.01939743	    -55.67281175	   -120.28709926	     50.65475396	     65.69859578	      0.00000000	      5.00140809	    -29.03739202	    -44.50793844	    -61.04230022	     92.18763101	     38.09928999	      0.00000000	      5.00140809
